<mxfile host="app.diagrams.net" agent="Mozilla/5.0 (Windows NT 10.0; Win64; x64) AppleWebKit/537.36 (KHTML, like Gecko) Chrome/130.0.0.0 Safari/537.36 Edg/130.0.0.0" version="24.7.17">
  <diagram name="Page-1" id="0nlb1dliOWBwUxGK6tL_">
    <mxGraphModel dx="1153" dy="600" grid="1" gridSize="10" guides="1" tooltips="1" connect="1" arrows="1" fold="1" page="1" pageScale="1" pageWidth="850" pageHeight="1100" math="0" shadow="0">
      <root>
        <mxCell id="0" />
        <mxCell id="1" parent="0" />
        <mxCell id="mXgSpQSUyrAD3igTiRfM-2" value="Card" style="swimlane;fontStyle=0;childLayout=stackLayout;horizontal=1;startSize=20;fillColor=#ffffff;horizontalStack=0;resizeParent=1;resizeParentMax=0;resizeLast=0;collapsible=0;marginBottom=0;swimlaneFillColor=#ffffff;" parent="1" vertex="1">
          <mxGeometry x="280" y="70" width="160" height="200" as="geometry" />
        </mxCell>
        <mxCell id="mXgSpQSUyrAD3igTiRfM-8" value="&lt;div style=&quot;&quot;&gt;&lt;div&gt;&lt;u style=&quot;&quot;&gt;Number&lt;/u&gt;&lt;/div&gt;&lt;/div&gt;&lt;div style=&quot;&quot;&gt;Set&lt;/div&gt;&lt;div style=&quot;&quot;&gt;&lt;span style=&quot;background-color: initial;&quot;&gt;Illustrator&lt;/span&gt;&lt;br&gt;&lt;/div&gt;&lt;div style=&quot;&quot;&gt;Color&lt;/div&gt;&lt;div style=&quot;&quot;&gt;Type&lt;/div&gt;&lt;div style=&quot;&quot;&gt;Tags&lt;/div&gt;&lt;div style=&quot;&quot;&gt;Cost&lt;/div&gt;&lt;div style=&quot;&quot;&gt;Condition&lt;/div&gt;&lt;div style=&quot;&quot;&gt;&lt;br&gt;&lt;/div&gt;&lt;div style=&quot;&quot;&gt;&lt;br&gt;&lt;/div&gt;" style="text;strokeColor=none;align=left;fillColor=none;html=1;verticalAlign=middle;whiteSpace=wrap;rounded=0;" parent="mXgSpQSUyrAD3igTiRfM-2" vertex="1">
          <mxGeometry y="20" width="160" height="180" as="geometry" />
        </mxCell>
        <mxCell id="mXgSpQSUyrAD3igTiRfM-3" value="Transaction" style="swimlane;fontStyle=0;childLayout=stackLayout;horizontal=1;startSize=20;fillColor=#ffffff;horizontalStack=0;resizeParent=1;resizeParentMax=0;resizeLast=0;collapsible=0;marginBottom=0;swimlaneFillColor=#ffffff;" parent="1" vertex="1">
          <mxGeometry x="220" y="390" width="160" height="110" as="geometry" />
        </mxCell>
        <mxCell id="bROvHSK_g-5JyAQyVbSG-1" value="&lt;u&gt;ID&lt;/u&gt;&lt;div&gt;Card&lt;/div&gt;&lt;div&gt;Buyer&lt;/div&gt;&lt;div&gt;Seller&lt;br&gt;&lt;/div&gt;" style="text;strokeColor=none;align=left;fillColor=none;html=1;verticalAlign=middle;whiteSpace=wrap;rounded=0;" vertex="1" parent="mXgSpQSUyrAD3igTiRfM-3">
          <mxGeometry y="20" width="160" height="90" as="geometry" />
        </mxCell>
        <mxCell id="mXgSpQSUyrAD3igTiRfM-4" value="Set" style="swimlane;fontStyle=0;childLayout=stackLayout;horizontal=1;startSize=20;fillColor=#ffffff;horizontalStack=0;resizeParent=1;resizeParentMax=0;resizeLast=0;collapsible=0;marginBottom=0;swimlaneFillColor=#ffffff;" parent="1" vertex="1">
          <mxGeometry x="400" y="390" width="160" height="100" as="geometry" />
        </mxCell>
        <mxCell id="bROvHSK_g-5JyAQyVbSG-3" value="&lt;u&gt;ID&lt;/u&gt;&lt;div&gt;Name&lt;/div&gt;&lt;div&gt;Release Date&lt;/div&gt;" style="text;strokeColor=none;align=left;fillColor=none;html=1;verticalAlign=middle;whiteSpace=wrap;rounded=0;" vertex="1" parent="mXgSpQSUyrAD3igTiRfM-4">
          <mxGeometry y="20" width="160" height="80" as="geometry" />
        </mxCell>
        <mxCell id="mXgSpQSUyrAD3igTiRfM-5" value="Deck" style="swimlane;fontStyle=0;childLayout=stackLayout;horizontal=1;startSize=20;fillColor=#ffffff;horizontalStack=0;resizeParent=1;resizeParentMax=0;resizeLast=0;collapsible=0;marginBottom=0;swimlaneFillColor=#ffffff;" parent="1" vertex="1">
          <mxGeometry x="590" y="390" width="160" height="120" as="geometry" />
        </mxCell>
        <mxCell id="bROvHSK_g-5JyAQyVbSG-4" value="&lt;u&gt;ID&lt;/u&gt;&lt;div&gt;Owner&lt;/div&gt;&lt;div&gt;Type&lt;/div&gt;&lt;div&gt;&lt;br&gt;&lt;/div&gt;" style="text;strokeColor=none;align=left;fillColor=none;html=1;verticalAlign=middle;whiteSpace=wrap;rounded=0;" vertex="1" parent="mXgSpQSUyrAD3igTiRfM-5">
          <mxGeometry y="20" width="160" height="100" as="geometry" />
        </mxCell>
        <mxCell id="mXgSpQSUyrAD3igTiRfM-6" value="Game" style="swimlane;fontStyle=0;childLayout=stackLayout;horizontal=1;startSize=20;fillColor=#ffffff;horizontalStack=0;resizeParent=1;resizeParentMax=0;resizeLast=0;collapsible=0;marginBottom=0;swimlaneFillColor=#ffffff;verticalAlign=top;" parent="1" vertex="1">
          <mxGeometry x="580" y="90" width="160" height="110" as="geometry" />
        </mxCell>
        <mxCell id="mXgSpQSUyrAD3igTiRfM-9" value="&lt;div style=&quot;&quot;&gt;&lt;u&gt;ID&lt;/u&gt;&lt;/div&gt;&lt;div style=&quot;&quot;&gt;Type&lt;/div&gt;&lt;div style=&quot;&quot;&gt;Date&amp;nbsp;&lt;br&gt;Location&lt;/div&gt;" style="text;strokeColor=none;align=left;fillColor=none;html=1;verticalAlign=middle;whiteSpace=wrap;rounded=0;" parent="mXgSpQSUyrAD3igTiRfM-6" vertex="1">
          <mxGeometry y="20" width="160" height="90" as="geometry" />
        </mxCell>
        <mxCell id="mXgSpQSUyrAD3igTiRfM-1" value="User" style="swimlane;fontStyle=0;childLayout=stackLayout;horizontal=1;startSize=20;fillColor=#ffffff;horizontalStack=0;resizeParent=1;resizeParentMax=0;resizeLast=0;collapsible=0;marginBottom=0;swimlaneFillColor=#ffffff;" parent="1" vertex="1">
          <mxGeometry x="20" y="90" width="160" height="120" as="geometry" />
        </mxCell>
        <mxCell id="mXgSpQSUyrAD3igTiRfM-7" value="&lt;div style=&quot;&quot;&gt;&lt;span style=&quot;background-color: initial;&quot;&gt;&lt;u&gt;ID&lt;/u&gt;&lt;/span&gt;&lt;/div&gt;&lt;div style=&quot;&quot;&gt;&lt;span style=&quot;background-color: initial;&quot;&gt;First&lt;/span&gt;&lt;/div&gt;&lt;div style=&quot;&quot;&gt;Last&lt;/div&gt;&lt;div style=&quot;&quot;&gt;Role&lt;/div&gt;" style="text;strokeColor=none;align=left;fillColor=none;html=1;verticalAlign=middle;whiteSpace=wrap;rounded=0;" parent="mXgSpQSUyrAD3igTiRfM-1" vertex="1">
          <mxGeometry y="20" width="160" height="100" as="geometry" />
        </mxCell>
      </root>
    </mxGraphModel>
  </diagram>
</mxfile>
